<?xml version="1.0" standalone="no"?>
<svg xmlns:xlink="http://www.w3.org/1999/xlink" id="wave" style="transform:rotate(180deg); transition: 0.3s" viewBox="0 0 1440 250" version="1.1" xmlns="http://www.w3.org/2000/svg"><defs><linearGradient id="sw-gradient-0" x1="0" x2="0" y1="1" y2="0"><stop stop-color="rgba(129.351, 62, 243, 1)" offset="0%"/><stop stop-color="rgba(255, 11, 11, 1)" offset="100%"/></linearGradient></defs><path style="transform:translate(0, 0px); opacity:1" fill="url(#sw-gradient-0)" d="M0,200L40,204.2C80,208,160,217,240,200C320,183,400,142,480,112.5C560,83,640,67,720,70.8C800,75,880,100,960,116.7C1040,133,1120,142,1200,141.7C1280,142,1360,133,1440,108.3C1520,83,1600,42,1680,45.8C1760,50,1840,100,1920,125C2000,150,2080,150,2160,125C2240,100,2320,50,2400,37.5C2480,25,2560,50,2640,66.7C2720,83,2800,92,2880,83.3C2960,75,3040,50,3120,54.2C3200,58,3280,92,3360,116.7C3440,142,3520,158,3600,145.8C3680,133,3760,92,3840,100C3920,108,4000,167,4080,166.7C4160,167,4240,108,4320,100C4400,92,4480,133,4560,137.5C4640,142,4720,108,4800,79.2C4880,50,4960,25,5040,37.5C5120,50,5200,100,5280,112.5C5360,125,5440,100,5520,95.8C5600,92,5680,108,5720,116.7L5760,125L5760,250L5720,250C5680,250,5600,250,5520,250C5440,250,5360,250,5280,250C5200,250,5120,250,5040,250C4960,250,4880,250,4800,250C4720,250,4640,250,4560,250C4480,250,4400,250,4320,250C4240,250,4160,250,4080,250C4000,250,3920,250,3840,250C3760,250,3680,250,3600,250C3520,250,3440,250,3360,250C3280,250,3200,250,3120,250C3040,250,2960,250,2880,250C2800,250,2720,250,2640,250C2560,250,2480,250,2400,250C2320,250,2240,250,2160,250C2080,250,2000,250,1920,250C1840,250,1760,250,1680,250C1600,250,1520,250,1440,250C1360,250,1280,250,1200,250C1120,250,1040,250,960,250C880,250,800,250,720,250C640,250,560,250,480,250C400,250,320,250,240,250C160,250,80,250,40,250L0,250Z"/><defs><linearGradient id="sw-gradient-1" x1="0" x2="0" y1="1" y2="0"><stop stop-color="rgba(62, 98.895, 243, 1)" offset="0%"/><stop stop-color="rgba(255, 11, 242.875, 1)" offset="100%"/></linearGradient></defs><path style="transform:translate(0, 50px); opacity:0.9" fill="url(#sw-gradient-1)" d="M0,25L40,33.3C80,42,160,58,240,58.3C320,58,400,42,480,37.5C560,33,640,42,720,70.8C800,100,880,150,960,162.5C1040,175,1120,150,1200,125C1280,100,1360,75,1440,75C1520,75,1600,100,1680,125C1760,150,1840,175,1920,154.2C2000,133,2080,67,2160,41.7C2240,17,2320,33,2400,58.3C2480,83,2560,117,2640,133.3C2720,150,2800,150,2880,129.2C2960,108,3040,67,3120,54.2C3200,42,3280,58,3360,79.2C3440,100,3520,125,3600,133.3C3680,142,3760,133,3840,112.5C3920,92,4000,58,4080,70.8C4160,83,4240,142,4320,170.8C4400,200,4480,200,4560,183.3C4640,167,4720,133,4800,108.3C4880,83,4960,67,5040,58.3C5120,50,5200,50,5280,79.2C5360,108,5440,167,5520,187.5C5600,208,5680,192,5720,183.3L5760,175L5760,250L5720,250C5680,250,5600,250,5520,250C5440,250,5360,250,5280,250C5200,250,5120,250,5040,250C4960,250,4880,250,4800,250C4720,250,4640,250,4560,250C4480,250,4400,250,4320,250C4240,250,4160,250,4080,250C4000,250,3920,250,3840,250C3760,250,3680,250,3600,250C3520,250,3440,250,3360,250C3280,250,3200,250,3120,250C3040,250,2960,250,2880,250C2800,250,2720,250,2640,250C2560,250,2480,250,2400,250C2320,250,2240,250,2160,250C2080,250,2000,250,1920,250C1840,250,1760,250,1680,250C1600,250,1520,250,1440,250C1360,250,1280,250,1200,250C1120,250,1040,250,960,250C880,250,800,250,720,250C640,250,560,250,480,250C400,250,320,250,240,250C160,250,80,250,40,250L0,250Z"/><defs><linearGradient id="sw-gradient-2" x1="0" x2="0" y1="1" y2="0"><stop stop-color="rgba(62, 172.48, 243, 1)" offset="0%"/><stop stop-color="rgba(151.393, 11, 255, 1)" offset="100%"/></linearGradient></defs><path style="transform:translate(0, 100px); opacity:0.8" fill="url(#sw-gradient-2)" d="M0,100L40,120.8C80,142,160,183,240,166.7C320,150,400,75,480,66.7C560,58,640,117,720,154.2C800,192,880,208,960,216.7C1040,225,1120,225,1200,204.2C1280,183,1360,142,1440,129.2C1520,117,1600,133,1680,154.2C1760,175,1840,200,1920,195.8C2000,192,2080,158,2160,154.2C2240,150,2320,175,2400,183.3C2480,192,2560,183,2640,158.3C2720,133,2800,92,2880,62.5C2960,33,3040,17,3120,41.7C3200,67,3280,133,3360,166.7C3440,200,3520,200,3600,195.8C3680,192,3760,183,3840,158.3C3920,133,4000,92,4080,87.5C4160,83,4240,117,4320,129.2C4400,142,4480,133,4560,116.7C4640,100,4720,75,4800,58.3C4880,42,4960,33,5040,54.2C5120,75,5200,125,5280,120.8C5360,117,5440,58,5520,33.3C5600,8,5680,17,5720,20.8L5760,25L5760,250L5720,250C5680,250,5600,250,5520,250C5440,250,5360,250,5280,250C5200,250,5120,250,5040,250C4960,250,4880,250,4800,250C4720,250,4640,250,4560,250C4480,250,4400,250,4320,250C4240,250,4160,250,4080,250C4000,250,3920,250,3840,250C3760,250,3680,250,3600,250C3520,250,3440,250,3360,250C3280,250,3200,250,3120,250C3040,250,2960,250,2880,250C2800,250,2720,250,2640,250C2560,250,2480,250,2400,250C2320,250,2240,250,2160,250C2080,250,2000,250,1920,250C1840,250,1760,250,1680,250C1600,250,1520,250,1440,250C1360,250,1280,250,1200,250C1120,250,1040,250,960,250C880,250,800,250,720,250C640,250,560,250,480,250C400,250,320,250,240,250C160,250,80,250,40,250L0,250Z"/><defs><linearGradient id="sw-gradient-3" x1="0" x2="0" y1="1" y2="0"><stop stop-color="rgba(62, 98.895, 243, 1)" offset="0%"/><stop stop-color="rgba(126.594, 11, 255, 1)" offset="100%"/></linearGradient></defs><path style="transform:translate(0, 150px); opacity:0.7" fill="url(#sw-gradient-3)" d="M0,200L40,191.7C80,183,160,167,240,133.3C320,100,400,50,480,33.3C560,17,640,33,720,37.5C800,42,880,33,960,41.7C1040,50,1120,75,1200,91.7C1280,108,1360,117,1440,108.3C1520,100,1600,75,1680,83.3C1760,92,1840,133,1920,133.3C2000,133,2080,92,2160,83.3C2240,75,2320,100,2400,104.2C2480,108,2560,92,2640,108.3C2720,125,2800,175,2880,183.3C2960,192,3040,158,3120,137.5C3200,117,3280,108,3360,100C3440,92,3520,83,3600,79.2C3680,75,3760,75,3840,83.3C3920,92,4000,108,4080,100C4160,92,4240,58,4320,58.3C4400,58,4480,92,4560,95.8C4640,100,4720,75,4800,66.7C4880,58,4960,67,5040,87.5C5120,108,5200,142,5280,150C5360,158,5440,142,5520,137.5C5600,133,5680,142,5720,145.8L5760,150L5760,250L5720,250C5680,250,5600,250,5520,250C5440,250,5360,250,5280,250C5200,250,5120,250,5040,250C4960,250,4880,250,4800,250C4720,250,4640,250,4560,250C4480,250,4400,250,4320,250C4240,250,4160,250,4080,250C4000,250,3920,250,3840,250C3760,250,3680,250,3600,250C3520,250,3440,250,3360,250C3280,250,3200,250,3120,250C3040,250,2960,250,2880,250C2800,250,2720,250,2640,250C2560,250,2480,250,2400,250C2320,250,2240,250,2160,250C2080,250,2000,250,1920,250C1840,250,1760,250,1680,250C1600,250,1520,250,1440,250C1360,250,1280,250,1200,250C1120,250,1040,250,960,250C880,250,800,250,720,250C640,250,560,250,480,250C400,250,320,250,240,250C160,250,80,250,40,250L0,250Z"/></svg>